<svg version="1.2" xmlns="http://www.w3.org/2000/svg" viewBox="0 0 164 50" width="164" height="50">
	<title>fanyclogoo</title>
	<style>
		.s0 { fill: #ffffff } 
	</style>
	<path id="NextEra" class="s0" aria-label="NextEra"  d="m47.1 11v25.4h-2.8l-14.6-22.1v22.1h-2.6v-25.4h3.4l14 21.3v-21.3zm22.3 15.5v1.3h-16.9q0.3 2.9 2.4 4.7 2.1 1.9 5 1.8 4.4 0 6.4-4.1h2.6q-1 3-3.5 4.8-2.5 1.8-5.6 1.8-3.9 0.1-6.8-2.8-3-2.9-3.1-6.9-0.1-4.2 3-7.2 3.1-3.1 7.3-2.9 3.7 0.3 6.5 3.1 2.7 2.9 2.7 6.4zm-16.9-1h14.4q-0.5-2.6-2.5-4.2-1.9-1.7-4.6-1.7-2.7-0.1-4.8 1.6-2 1.6-2.5 4.3zm24.8 1.3l6.6 9.6h-3.2l-4.9-7.6-4.9 7.6h-3l6.3-9.6-6.4-9.2h2.9l5.1 7.1 4.9-7.1h3.1zm16 7.8v2.1q-6.8 0-6.8-5.8v-20h2.5v6.6h4.3v2.3h-4.3v10.6q0 4.2 4.3 4.2zm16.1-0.7v2.4h-7.3q-2.9 0-4.7-1.6-1.9-1.6-1.9-4.6v-12.9q0-3 1.9-4.7 1.8-1.6 4.7-1.6h7.3v2.4h-7.3q-2 0-2.8 0.8-1.2 1.3-1.2 2.6v5.5h8.4v2.4h-8.4v5.9q0 1.3 1.2 2.6 0.8 0.8 2.8 0.8zm8.7-16.8v2.5q-1.7 0.1-2.8 1-1.1 0.9-1.5 1.5-0.6 1.1-0.6 2.9v11.3h-2.7v-18.8h2.4v2.7q0.8-1.6 2.3-2.4 1.4-0.7 2.9-0.7zm18.7 9.8v0.1 9.3h-2.5v-2.9q-3 3.5-7.5 3.3-3.9-0.1-6.6-3-2.8-2.8-2.8-6.8 0-4.1 3-7.1 2.9-2.9 7-2.8 4 0.2 6.7 3.1 2.8 2.8 2.7 6.8zm-2.5-0.2q-0.1-3-2.1-5.1-2.1-2.1-5-2.1-3 0-5.1 2.1-2.1 2.1-2.1 5.1-0.1 3 1.9 5.2 2.1 2.2 5 2.4 3.1 0.1 5.2-2.2 2.2-2.3 2.2-5.4z"/>
</svg>